<svg width="123" height="125" viewBox="0 0 123 125" fill="none" xmlns="http://www.w3.org/2000/svg">
    <path d="M3.58682 37.8338L8.4428 32.6877C10.0545 31.4075 13.8865 28.77 16.3214 28.461C19.365 28.0747 21.9467 29.4224 28.7612 37.3689C35.5757 45.3155 33.7703 49.6401 33.3084 51.3741C32.8466 53.1082 28.4454 56.9556 26.2414 59.0969C24.4781 60.8099 25.4459 63.5829 26.1502 64.7552C33.2437 76.3714 38.3401 82.6108 50.4276 93.0104C52.7084 95.0789 57.9642 99.2271 60.7405 99.2719C63.5168 99.3166 68.036 95.326 69.9485 93.3251C73.9121 89.9793 82.9883 92.1233 88.0979 97.9714C92.2224 102.692 94.4785 105.911 94.4505 107.652C93.5258 112.192 91.2876 115.438 88.1949 118.871C85.1021 122.304 82.0207 124.591 76.3911 124.34C57.4922 120.936 46.8499 114.017 27.8139 96.1288C10.7596 76.4932 3.22054 64.2638 1.41221 49.9892C0.855342 44.6919 1.61051 40.7362 3.58682 37.8338Z" fill="#16A34A"/>
    <path d="M27.7413 27.3569C32.8115 20.22 36.3878 16.6029 45.1544 11.4039C54.3063 7.06627 59.4142 6.19016 68.5037 5.98633C84.6951 6.71573 95.3761 11.5269 105.309 21.4206C115.241 31.3144 118.33 43.187 117.973 55.4553C117.616 67.7236 110.843 86.4576 95.0191 98.5923" stroke="#16A34A" stroke-width="10"/>
    <path d="M71.5224 71.7322H46.7177V66.3611L58.1435 54.3494C60.9593 51.143 62.3672 48.5958 62.3672 46.7078C62.3672 45.1778 62.0335 44.0141 61.3662 43.2166C60.6989 42.419 59.7304 42.0203 58.4609 42.0203C57.2077 42.0203 56.1904 42.5574 55.4091 43.6316C54.6279 44.6895 54.2373 46.016 54.2373 47.6111H45.9853C45.9853 45.4301 46.5306 43.42 47.6211 41.5808C48.7116 39.7253 50.2252 38.2768 52.1621 37.2351C54.0989 36.1934 56.2636 35.6726 58.6562 35.6726C62.4974 35.6726 65.4515 36.5597 67.5185 38.3337C69.6019 40.1078 70.6435 42.655 70.6435 45.9753C70.6435 47.3751 70.3831 48.7423 69.8623 50.0769C69.3414 51.3953 68.5276 52.7869 67.4209 54.2517C66.3304 55.7003 64.5644 57.6453 62.123 60.0867L57.5332 65.3845H71.5224V71.7322ZM97.4013 57.8406H101.015V64.1882H97.4013V71.7322H89.1738V64.1882H75.4287L74.9404 59.1589L89.1738 36.2585V36.1853H97.4013V57.8406ZM82.7773 57.8406H89.1738V46.9031L88.6611 47.7332L82.7773 57.8406Z" fill="#16A34A"/>
</svg>
