<svg width="171" height="171" viewBox="0 0 171 171" fill="none" xmlns="http://www.w3.org/2000/svg">
    <circle cx="118.303" cy="52.8765" r="10.2576" fill="white"/>
    <circle cx="85.06" cy="85.666" r="82.56" stroke="white" stroke-width="5"/>
    <path d="M44.5966 78.5205C44.5966 74.3784 41.2388 71.0205 37.0966 71.0205C32.9545 71.0205 29.5966 74.3784 29.5966 78.5205H44.5966ZM37.0966 103.31H29.5966C29.5966 107.452 32.9545 110.81 37.0966 110.81V103.31ZM134.544 103.31V110.81C138.686 110.81 142.044 107.452 142.044 103.31H134.544ZM142.044 69.9725C142.044 65.8303 138.686 62.4725 134.544 62.4725C130.402 62.4725 127.044 65.8303 127.044 69.9725H142.044ZM29.5966 78.5205V103.31H44.5966V78.5205H29.5966ZM37.0966 110.81H134.544V95.8098H37.0966V110.81ZM142.044 103.31V69.9725H127.044V103.31H142.044Z" fill="white"/>
    <path d="M42.2255 87.0685C42.5104 84.3617 45.0463 78.9479 52.9105 78.9479H75.5628L82.4012 91.3425H88.3848L81.119 78.0931L87.9574 74.6739L104.199 91.3425L129.415 66.1259L132.835 100.318L38.3788 101.6L42.2255 87.0685Z" fill="white"/>
    <path d="M39.661 135.518V121.841M39.661 110.729V121.841M39.661 121.841H131.125M131.125 121.841V110.729M131.125 121.841V135.518" stroke="white" stroke-width="8"/>
    <path d="M90.0944 60.5696C94.8813 65.3565 95.2828 69.6484 94.8852 71.1959C95.8075 70.5548 96.8962 69.8576 98.0964 69.1741C97.9336 67.1152 97.3602 62.2793 92.6588 58.4326C87.9574 54.586 86.6752 51.7367 86.6752 50.312H83.2559C83.2559 54.586 84.1108 54.586 90.0944 60.5696Z" fill="white"/>
    <path d="M93.0862 72.5369L104.199 83.6493L118.73 68.6903C118.588 67.5505 116.679 65.2711 110.182 65.2711C106.122 65.2711 101.627 67.1635 98.0964 69.1741C96.8962 69.8576 95.8075 70.5548 94.8852 71.1959C94.1801 71.6861 93.5722 72.1434 93.0862 72.5369Z" fill="white"/>
    <path fill-rule="evenodd" clip-rule="evenodd" d="M83.2559 50.312H86.6752C87.7009 50.312 88.2423 49.1723 88.3848 48.6024V46.8928C94.1975 46.8928 95.6506 44.8983 95.6506 43.901V23.8131C95.6506 21.7616 93.941 21.2487 93.0862 21.2487H77.6997C74.6224 21.2487 74.1381 22.3885 74.2805 22.9583V43.901C74.2805 46.2944 79.1244 46.8928 81.5463 46.8928V48.6024C81.5463 49.6282 82.6861 50.1695 83.2559 50.312ZM79.8368 34.4982L84.9656 27.2323L90.0944 34.4982C90.6643 36.7776 90.4363 41.3366 84.9656 41.3366C79.4949 41.3366 79.2669 36.7776 79.8368 34.4982Z" fill="white"/>
</svg>
