<svg width="170" height="171" viewBox="0 0 170 171" fill="none" xmlns="http://www.w3.org/2000/svg">
    <circle cx="85" cy="85.9863" r="82.5" stroke="white" stroke-width="5"/>
    <path d="M108.917 60.8012C111.616 61.3868 114.278 59.6738 114.864 56.9752C115.449 54.2765 113.736 51.6142 111.037 51.0286L108.917 60.8012ZM82.8582 44.9863L85.3461 40.6492L82.8085 39.1936L80.2962 40.6926L82.8582 44.9863ZM46.0248 56.7244L45.8296 51.7282L41.3009 51.9052L41.0335 56.4294L46.0248 56.7244ZM82.8582 138.486L80.1066 142.661L82.8004 144.437L85.5282 142.714L82.8582 138.486ZM123.756 89.4109C124.372 86.719 122.689 84.0376 119.997 83.4218C117.305 82.806 114.624 84.489 114.008 87.1809L123.756 89.4109ZM111.037 51.0286C100.678 48.7808 95.2877 46.3521 85.3461 40.6492L80.3703 49.3234C90.904 55.3659 97.2671 58.2734 108.917 60.8012L111.037 51.0286ZM80.2962 40.6926C72.9898 45.052 67.6451 47.6318 62.5752 49.2188C57.5446 50.7935 52.5447 51.4659 45.8296 51.7282L46.22 61.7206C53.435 61.4387 59.39 60.6943 65.5626 58.7621C71.6959 56.8422 77.8029 53.825 85.4201 49.2801L80.2962 40.6926ZM41.0335 56.4294C39.7297 78.4877 41.3826 94.9516 47.6647 108.583C53.9894 122.307 64.7005 132.507 80.1066 142.661L85.6097 134.312C70.9584 124.655 61.9672 115.726 56.7467 104.398C51.4836 92.9773 49.7485 78.4655 51.0161 57.0194L41.0335 56.4294ZM85.5282 142.714C96.521 135.771 104.65 129.335 110.759 121.004C116.883 112.651 120.698 102.777 123.756 89.4109L114.008 87.1809C111.108 99.8575 107.698 108.266 102.694 115.091C97.6743 121.937 90.7701 127.575 80.1881 134.259L85.5282 142.714Z" fill="white"/>
    <path d="M66.8491 80.6006C64.8346 78.712 61.6704 78.814 59.7818 80.8286C57.8931 82.8432 57.9952 86.0073 60.0097 87.896L66.8491 80.6006ZM82.858 102.463L79.4383 106.11L82.9567 109.409L86.38 106.012L82.858 102.463ZM139.404 53.3926C141.364 51.4474 141.376 48.2816 139.431 46.3215C137.486 44.3615 134.32 44.3493 132.36 46.2945L139.404 53.3926ZM60.0097 87.896L79.4383 106.11L86.2777 98.8149L66.8491 80.6006L60.0097 87.896ZM86.38 106.012L139.404 53.3926L132.36 46.2945L79.3361 98.9136L86.38 106.012Z" fill="white"/>
</svg>
