<svg width="170" height="171" viewBox="0 0 170 171" fill="none" xmlns="http://www.w3.org/2000/svg">
    <circle cx="85" cy="85.9863" r="82.5" stroke="white" stroke-width="5"/>
    <path d="M79.5 98.4863C87.1152 102.782 99 109.486 99 109.486C101.391 111.567 102.42 112.98 103 116.486V134.486H89.5M79.5 98.4863C77.0889 102.238 75.2174 104.724 72.9481 107.154M79.5 98.4863C80.8668 102.782 83 109.486 83 109.486C82.9035 111.252 82.29 111.74 80.5 111.986L72.9481 107.154M79.5 98.4863V86.9863M68.5 111.486C66.7958 109.9 65.381 108.518 64.0867 107.154M68.5 111.486C70.2284 109.91 71.653 108.541 72.9481 107.154M68.5 111.486L68 134.486M57 98.4863L36.5 109.986C34.4146 112.361 33.6001 113.773 33 116.486V134.486H47M57 98.4863L54 109.486C54.0678 111.46 54.6786 111.941 56.5 111.986L64.0867 107.154M57 98.4863C59.6752 102.126 61.6713 104.609 64.0867 107.154M57 98.4863V86.9863M68 134.486H47M68 134.486H89.5M47 134.486V123.486M89.5 134.486V123.486M57 86.9863C58.1667 88.8197 62 92.4863 68 92.4863C74 92.4863 78.1667 88.8197 79.5 86.9863M57 86.9863C55.2727 84.5522 54.7247 83.1081 54 80.4863V62.4863C54.5563 58.9498 55.1776 57.2732 57 54.9863H79.5C81.9434 56.9956 82.3932 58.7883 82.5 62.4863V80.4863C81.9495 83.1196 81.2627 84.527 79.5 86.9863" stroke="white" stroke-width="4"/>
    <path d="M135.5 127.486V129.486H137.5V127.486H135.5ZM137.5 52.9863C137.5 51.8818 136.605 50.9863 135.5 50.9863C134.395 50.9863 133.5 51.8818 133.5 52.9863H137.5ZM114 34.4863C115.105 34.4863 116 33.5909 116 32.4863C116 31.3818 115.105 30.4863 114 30.4863V34.4863ZM68 32.4863V30.4863H66V32.4863H68ZM102 40.9863V38.9863H100V40.9863H102ZM102 55.4863H100V57.4863H102V55.4863ZM115.5 55.4863V57.4863H117.5V55.4863H115.5ZM115.5 40.9863H117.5V38.9863H115.5V40.9863ZM121 31.9863L122.389 30.5475C121.812 29.9901 120.957 29.8317 120.218 30.1454C119.48 30.459 119 31.1838 119 31.9863H121ZM121 45.9863H119V47.9863H121V45.9863ZM135.5 45.9863V47.9863C136.315 47.9863 137.049 47.4914 137.354 46.7355C137.66 45.9795 137.476 45.1138 136.889 44.5475L135.5 45.9863ZM103 129.486H135.5V125.486H103V129.486ZM137.5 127.486V52.9863H133.5V127.486H137.5ZM114 30.4863H68V34.4863H114V30.4863ZM66 32.4863V54.9863H70V32.4863H66ZM77.5 44.9863H94.5V40.9863H77.5V44.9863ZM94.5 51.4863H77.5V55.4863H94.5V51.4863ZM83.5 65.9863H126V61.9863H83.5V65.9863ZM126 72.4863H83.5V76.4863H126V72.4863ZM82 86.9863H126V82.9863H82V86.9863ZM126 93.4863H80.5V97.4863H126V93.4863ZM126 103.986H112.5V107.986H126V103.986ZM100 40.9863V55.4863H104V40.9863H100ZM102 57.4863H115.5V53.4863H102V57.4863ZM117.5 55.4863V40.9863H113.5V55.4863H117.5ZM115.5 38.9863H102V42.9863H115.5V38.9863ZM119 31.9863V45.9863H123V31.9863H119ZM121 47.9863H135.5V43.9863H121V47.9863ZM136.889 44.5475L122.389 30.5475L119.611 33.4251L134.111 47.4251L136.889 44.5475Z" fill="white"/>
</svg>
